<?xml version="1.0" encoding="UTF-8"?>
<svg id="Layer_2" data-name="Layer 2" xmlns="http://www.w3.org/2000/svg" viewBox="0 0 712.5 1425">
  <defs>
    <style>
      .cls-1 {
        fill: #fff;
        stroke-width: 0px;
      }
    </style>
  </defs>
  <g id="Layer_1-2" data-name="Layer 1">
    <g>
      <polygon class="cls-1" points="89.06 0 89.06 89.06 178.13 89.06 178.13 0 267.19 0 267.19 89.06 445.31 89.06 445.31 0 534.38 0 534.38 89.06 623.44 89.06 623.44 0 712.5 0 712.5 267.19 623.44 267.19 623.44 356.25 89.06 356.25 89.06 267.19 0 267.19 0 0 89.06 0"/>
      <path class="cls-1" d="M712.5,623.44c0,89.06-266.79,801.56-266.79,801.56h-56.6v-578.21c14.05-10.09,23.16-26.62,23.16-45.22,0-30.87-25.14-56.01-56.01-56.01s-56.01,25.14-56.01,56.01c0,17.32,7.82,32.76,20.19,42.95v580.49h-55.52S0,712.5,0,623.44c89.06,0,89.06-178.13,89.06-178.13h534.38s0,178.13,89.06,178.13Z"/>
    </g>
  </g>
</svg>