<?xml version="1.0" encoding="UTF-8"?>
<svg id="Layer_2" data-name="Layer 2" xmlns="http://www.w3.org/2000/svg" viewBox="0 0 501.11 106.62">
  <defs>
    <style>
      .cls-1 {
        fill: #fff;
        stroke-width: 0px;
      }
    </style>
  </defs>
  <g id="Layer_1-2" data-name="Layer 1">
    <g>
      <path class="cls-1" d="M101.29,58.64v-15.99c0-15.99-15.99-15.99-15.99-15.99h-21.32s-10.66,0-10.66,15.99v31.99s0,10.66,15.99,10.66h31.99v-10.66h-26.65c-5.33,0-5.33-5.33-5.33-5.33v-10.66h31.99ZM69.3,42.65s0-5.33,5.33-5.33h5.33s5.33,0,5.33,5.33v5.33h-15.99v-5.33Z"/>
      <path class="cls-1" d="M122.61,42.65v1.63c0,2.24,1.36,4.25,3.44,5.08l15.73,6.29c4.53,1.81,7.49,6.19,7.49,11.07v2.59c0,15.99-15.99,15.99-15.99,15.99h-26.65v-10.66h21.32c5.33,0,5.33-5.33,5.33-5.33v-1.63c0-2.24-1.36-4.25-3.44-5.08l-15.73-6.29c-4.53-1.81-7.49-6.19-7.49-11.07v-2.59s0-15.99,15.99-15.99h26.65v10.66h-21.32c-5.33,0-5.33,5.33-5.33,5.33Z"/>
      <g>
        <path class="cls-1" d="M170.59,26.65v58.64h-15.99V31.99c0-5.33,5.33-5.33,5.33-5.33h10.66Z"/>
        <path class="cls-1" d="M170.59,0v15.99h-15.99V5.33s0-5.33,5.33-5.33h10.66Z"/>
      </g>
      <path class="cls-1" d="M31.99,0H0v85.3h31.99c15.99,0,15.99-15.99,15.99-15.99V15.99S47.98,0,31.99,0ZM31.99,69.3c0,5.33-5.33,5.33-5.33,5.33h-10.66V10.66h10.66c5.33,0,5.33,5.33,5.33,5.33v53.31Z"/>
      <path class="cls-1" d="M213.24,26.65v5.33s0-5.33-5.33-5.33h-15.99c-15.99,0-15.99,15.99-15.99,15.99v26.65s0,15.99,15.99,15.99h21.32v5.33s0,5.33-5.33,5.33h-31.99v10.66h37.32s15.99,0,15.99-15.99V26.65h-15.99ZM213.24,74.63h-15.99c-5.33,0-5.33-5.33-5.33-5.33v-26.65c0-5.33,5.33-5.33,5.33-5.33h10.66c5.33,0,5.33,5.33,5.33,5.33v31.99Z"/>
      <path class="cls-1" d="M287.87,42.65v42.65h-15.99v-42.65c0-5.33-5.33-5.33-5.33-5.33h-10.66c-5.33,0-5.33,5.33-5.33,5.33v42.65h-15.99V26.65h15.99v5.33c0-5.33,5.33-5.33,5.33-5.33h15.99c15.99,0,15.99,15.99,15.99,15.99Z"/>
      <path class="cls-1" d="M330.52,0v31.99s0-5.33-5.33-5.33h-15.99c-15.99,0-15.99,15.99-15.99,15.99v26.65s0,15.99,15.99,15.99h15.99s5.33,0,5.33-5.33v5.33h15.99V0h-15.99ZM330.52,74.63h-15.99c-5.33,0-5.33-5.33-5.33-5.33v-26.65c0-5.33,5.33-5.33,5.33-5.33h10.66s5.33,0,5.33,5.33v31.99Z"/>
      <path class="cls-1" d="M389.16,26.65h-21.32c-15.99,0-15.99,15.99-15.99,15.99v26.65s0,15.99,15.99,15.99h21.32s15.99,0,15.99-15.99v-26.65s0-15.99-15.99-15.99ZM389.16,69.3c0,5.33-5.33,5.33-5.33,5.33h-10.66c-5.33,0-5.33-5.33-5.33-5.33v-26.65c0-5.33,5.33-5.33,5.33-5.33h10.66c5.33,0,5.33,5.33,5.33,5.33v26.65Z"/>
      <path class="cls-1" d="M501.11,42.65v42.65h-15.99v-42.65c0-5.33-5.33-5.33-5.33-5.33h-15.99v47.98h-15.99v-42.65s0-5.33-5.33-5.33h-15.99v47.98h-15.99V26.65h15.99v5.33c0-5.33,5.33-5.33,5.33-5.33h15.99c5.33,0,5.33,5.33,5.33,5.33,0-5.33,5.33-5.33,5.33-5.33h26.65c15.99,0,15.99,15.99,15.99,15.99Z"/>
    </g>
  </g>
</svg>